<svg id="Group_41649" data-name="Group 41649" xmlns="http://www.w3.org/2000/svg" xmlns:xlink="http://www.w3.org/1999/xlink" width="83.316" height="82.96" viewBox="0 0 83.316 82.96">
  <defs>
    <clipPath id="clip-path">
      <rect id="Rectangle_3012" data-name="Rectangle 3012" width="83.316" height="82.96" fill="#fff"/>
    </clipPath>
  </defs>
  <g id="Group_5" data-name="Group 5" clip-path="url(#clip-path)">
    <path id="Path_38450" data-name="Path 38450" d="M354.074,0a10.748,10.748,0,0,0-10.748,10.748v28.2A15.055,15.055,0,0,0,358.382,54h38.771V0Zm23.36,34.641H366.288a3.775,3.775,0,0,1-3.775-3.775v-11.5h14.922Z" transform="translate(-313.838)" fill="#fff"/>
    <path id="Path_38451" data-name="Path 38451" d="M9.36,15.925h10.18V2.069H0v4.5a9.36,9.36,0,0,0,9.36,9.36" transform="translate(0 -1.891)" fill="#fff"/>
    <path id="Path_38452" data-name="Path 38452" d="M9.36,243.43h10.18V229.574H0v4.5a9.36,9.36,0,0,0,9.36,9.36" transform="translate(0 -209.855)" fill="#fff"/>
    <path id="Path_38453" data-name="Path 38453" d="M23.322,452.943H4.136A44.056,44.056,0,0,0,48.192,497H86.563V477.458H47.837a24.515,24.515,0,0,1-24.515-24.515" transform="translate(-3.781 -414.039)" fill="#fff"/>
  </g>
</svg>
