<svg xmlns="http://www.w3.org/2000/svg" width="40.256" height="38.983" viewBox="0 0 40.256 38.983">
  <g id="Group_45458" data-name="Group 45458" transform="translate(-259.078)">
    <path id="Path_38560" data-name="Path 38560" d="M1598.33,61.414a6.3,6.3,0,1,1-6.7,6.291,6.506,6.506,0,0,1,6.7-6.291m0-3.478c-5.738,0-10.406,4.383-10.406,9.769s4.668,9.769,10.406,9.769,10.406-4.383,10.406-9.769-4.668-9.769-10.406-9.769" transform="translate(-1319.124 -48.214)" fill="#c89d54"/>
    <path id="Path_38561" data-name="Path 38561" d="M1558.987,3.588a7.434,7.434,0,0,1,7.551,7.312V28.083a7.434,7.434,0,0,1-7.551,7.312h-17.745a7.435,7.435,0,0,1-7.551-7.312V10.9a7.435,7.435,0,0,1,7.551-7.312Zm0-3.588h-17.745a11.1,11.1,0,0,0-11.255,10.9V28.083a11.1,11.1,0,0,0,11.255,10.9h17.745a11.1,11.1,0,0,0,11.256-10.9V10.9A11.1,11.1,0,0,0,1558.987,0" transform="translate(-1270.909)" fill="#c89d54"/>
    <path id="Path_38562" data-name="Path 38562" d="M1705.469,42.531a2.454,2.454,0,1,1-2.453-2.454,2.454,2.454,0,0,1,2.453,2.454" transform="translate(-1412.86 -33.594)" fill="#c89d54"/>
  </g>
</svg>
