<svg xmlns="http://www.w3.org/2000/svg" width="33.967" height="33.202" viewBox="0 0 33.967 33.202">
  <g id="Group_45457" data-name="Group 45457" transform="translate(0 -2.891)">
    <path id="Path_38567" data-name="Path 38567" d="M314.387,21.42a4.194,4.194,0,1,1-4.194-4.194,4.194,4.194,0,0,1,4.194,4.194" transform="translate(-305.998 -14.335)" fill="#c89d54"/>
    <rect id="Rectangle_3006" data-name="Rectangle 3006" width="7.056" height="23.125" transform="translate(0.672 12.967)" fill="#c89d54"/>
    <path id="Path_38568" data-name="Path 38568" d="M385.133,85V81.8h-7v23.125h7V95.783c0-3.958.529-5.852,1.484-6.887l.056-.061c1.454-1.578,4.171-1.824,5.539-.267a5.227,5.227,0,0,1,1.121,3.561v12.791H400.8V92.738c0-8.771-3.27-11.172-7.5-11.5l-.369-.028a7.8,7.8,0,0,0-7.8,3.79" transform="translate(-366.834 -68.829)" fill="#c89d54"/>
  </g>
</svg>
