<svg xmlns="http://www.w3.org/2000/svg" width="36.572" height="28.807" viewBox="0 0 36.572 28.807">
  <path id="Path_38563" data-name="Path 38563" d="M950.382,34.836a5.829,5.829,0,0,0,3.192-3.972s-3.133,1.712-4.8,1.712c-.024,0-.054,0-.081.006a7.679,7.679,0,0,0-5.477-2.26,7.389,7.389,0,0,0-7.544,7.224,6.956,6.956,0,0,0,.163,1.494l-.087.044c-8.247.339-15.326-7.457-15.326-7.457-2.548,5.051.3,8.22,2.159,9.762a10.052,10.052,0,0,1-3.221-.847c0,1.593.328,5.39,5.84,7.118a13.049,13.049,0,0,1-3.221.1s.814,4.584,6.866,5.014c-2.778,2.051-5.77,3.254-10.857,3,3.964,2.192,11.483,5.542,20.8,1.339l1.559-.859a19.774,19.774,0,0,0,10.373-16.282l.126-2.564a10.551,10.551,0,0,0,3.711-3.514,18.212,18.212,0,0,1-4.183.938" transform="translate(-917.992 -30.322)" fill="#c89d54"/>
</svg>
