<svg xmlns="http://www.w3.org/2000/svg" width="39.283" height="38.296" viewBox="0 0 39.283 38.296">
  <path id="Path_38565" data-name="Path 38565" d="M1243.65,5.333a15.971,15.971,0,0,1,16.227,15.727c-.013,8.541-7.238,15.6-16.063,15.681a16.543,16.543,0,0,1-8.963-2.51.334.334,0,0,0-.261-.04l-2.581.669-3.217.834.862-3.114.664-2.4a.308.308,0,0,0-.047-.261,15.277,15.277,0,0,1-2.849-8.883,15.972,15.972,0,0,1,16.227-15.7m0-3.287c-10.82,0-19.623,8.52-19.623,18.991a18.4,18.4,0,0,0,2.6,9.438.307.307,0,0,1,.033.239l-.282,1.016-.862,3.114-1.522,5.5,5.681-1.473,3.217-.834,1.2-.312a.334.334,0,0,1,.239.028,20.059,20.059,0,0,0,9.319,2.278c10.82,0,19.623-8.519,19.623-18.991s-8.8-18.991-19.623-18.991" transform="translate(-1223.99 -2.046)" fill="#c89d54"/>
</svg>
