<svg xmlns="http://www.w3.org/2000/svg" width="40.721" height="27.099" viewBox="0 0 40.721 27.099">
  <path id="Path_38558" data-name="Path 38558" d="M652.268,43.219c-.081-.519-.173-1.041-.278-1.557-.068-.347-.142-.691-.222-1.036a5.48,5.48,0,0,0-.2-.673c-.043-.118-.093-.233-.142-.344a5.456,5.456,0,0,0-1.571-2,6.992,6.992,0,0,0-3.495-1.437,129.435,129.435,0,0,0-28.005,0,6.281,6.281,0,0,0-.842.139,5.918,5.918,0,0,0-.852.271l-.068.027a6.684,6.684,0,0,0-1.757.993A5.273,5.273,0,0,0,613.32,39.5a2.225,2.225,0,0,0-.093.2c-.025.057-.046.112-.068.169l-.046.127-.17.589c-.08.344-.154.688-.223,1.035q-.157.774-.278,1.558a36.587,36.587,0,0,0-.432,4.751c-.007.148-.01.3-.01.45-.006.187-.006.371-.006.559v.039c0,.187.031.7.448,5.72.08.519.173,1.041.278,1.558.068.347.142.691.223,1.036a5.464,5.464,0,0,0,.2.673c.043.118.093.233.142.344a5.458,5.458,0,0,0,1.572,2,6.972,6.972,0,0,0,3.495,1.437,129.031,129.031,0,0,0,28,0,5.709,5.709,0,0,0,.9-.154c.033-.006.068-.015.1-.024a6.337,6.337,0,0,0,.868-.3.466.466,0,0,1,.056-.024,6.606,6.606,0,0,0,1.6-.93,5.282,5.282,0,0,0,1.516-1.893c.034-.067.065-.136.093-.205s.046-.112.068-.169.031-.084.046-.127l.17-.589c.08-.344.154-.688.222-1.035q.157-.774.278-1.558a36.655,36.655,0,0,0,.432-4.751c.006-.148.009-.3.009-.45,0-.2.006-.4.006-.6s-.031-.7-.447-5.72M638.493,49l-5.109,2.817-5.109,2.817a.046.046,0,0,1-.069-.038V43.325a.046.046,0,0,1,.069-.038l5.109,2.817,5.109,2.817a.043.043,0,0,1,0,.076" transform="translate(-611.995 -35.411)" fill="#c89d54"/>
</svg>
