<svg xmlns="http://www.w3.org/2000/svg" width="16.214" height="17.754" viewBox="0 0 16.214 17.754">
  <path id="Path_38702" data-name="Path 38702" d="M12.754,17.754h.659a.471.471,0,0,1,.081-.028,3.088,3.088,0,0,0,2.716-3.133q.01-5.724,0-11.448A3.063,3.063,0,0,0,15.5,1.128,3.131,3.131,0,0,0,11.444.47c-1.989,1.176-4,2.316-6,3.471C4.129,4.7,2.807,5.45,1.5,6.224A3.043,3.043,0,0,0,.046,9.393,3.094,3.094,0,0,0,1.661,11.63q4.9,2.822,9.8,5.651a6.6,6.6,0,0,0,.923.387,2.622,2.622,0,0,0,.367.086" transform="translate(16.213 17.754) rotate(180)" fill="#fff"/>
</svg>
